<?xml version="1.0"?><svg xmlns="http://www.w3.org/2000/svg"  viewBox="0 0 50 50" width="50px" height="50px">    <path d="M 13 3 C 10.63 3 10 5.62 10 7 L 10 8 L 9 8 L 9 10 L 10 10 L 10 12 L 9 12 L 9 14 L 10 14 L 10 16 L 9 16 L 9 18 L 10 18 L 10 20 L 7 20 L 7 22 L 9 22 L 9 44 L 41 44 L 41 22 L 43 22 L 43 20 L 40 20 L 40 18 L 41 18 L 41 16 L 40 16 L 40 14 L 41 14 L 41 12 L 40 12 L 40 10 L 41 10 L 41 8 L 40 8 L 40 7 C 40 5.62 39.37 3 37 3 C 34.63 3 34 5.62 34 7 L 34 8 L 33 8 L 33 10 L 34 10 L 34 12 L 33 12 L 33 14 L 34 14 L 34 16 L 33 16 L 33 18 L 34 18 L 34 20 L 28 20 L 28 18 L 29 18 L 29 16 L 28 16 L 28 14 L 29 14 L 29 12 L 28 12 L 28 10 L 29 10 L 29 8 L 28 8 L 28 7 C 28 5.62 27.37 3 25 3 C 22.63 3 22 5.62 22 7 L 22 8 L 21 8 L 21 10 L 22 10 L 22 12 L 21 12 L 21 14 L 22 14 L 22 16 L 21 16 L 21 18 L 22 18 L 22 20 L 16 20 L 16 18 L 17 18 L 17 16 L 16 16 L 16 14 L 17 14 L 17 12 L 16 12 L 16 10 L 17 10 L 17 8 L 16 8 L 16 7 C 16 5.62 15.37 3 13 3 z M 3 24 L 3 42 L 7 42 L 7 24 L 3 24 z M 14 24 L 16 24 L 16 41 L 14 41 L 14 24 z M 18 24 L 20 24 L 20 41 L 18 41 L 18 24 z M 22 24 L 24 24 L 24 41 L 22 41 L 22 24 z M 26 24 L 28 24 L 28 41 L 26 41 L 26 24 z M 30 24 L 32 24 L 32 41 L 30 41 L 30 24 z M 34 24 L 36 24 L 36 41 L 34 41 L 34 24 z M 43 24 L 43 42 L 47 42 L 47 24 L 43 24 z M 12 46 L 12 48 L 14 48 L 14 46 L 12 46 z M 16 46 L 16 48 L 18 48 L 18 46 L 16 46 z M 32 46 L 32 48 L 34 48 L 34 46 L 32 46 z M 36 46 L 36 48 L 38 48 L 38 46 L 36 46 z"/></svg>